<svg width="40" height="40" viewBox="0 0 40 40" fill="none" xmlns="http://www.w3.org/2000/svg">
<rect width="40" height="40" rx="10" fill="white"/>
<path d="M27.0747 26.0747C30.9751 22.1742 30.9751 15.8258 27.0747 11.9253C23.1742 8.02489 16.8258 8.02489 12.9253 11.9253C9.02489 15.8258 9.02489 22.1742 12.9253 26.0747C16.8258 29.9751 23.1742 29.9751 27.0747 26.0747ZM13.6312 12.6312C17.144 9.11832 22.856 9.11832 26.3688 12.6312C29.8817 16.144 29.8817 21.856 26.3688 25.3688C22.856 28.8817 17.144 28.8817 13.6312 25.3688C10.1183 21.856 10.1224 16.144 13.6312 12.6312Z" fill="black"/>
<path d="M20 22.7454C20.1387 22.7454 20.2611 22.6883 20.355 22.5985C20.4447 22.5088 20.5018 22.3823 20.5018 22.2436V19.4977H23.2477C23.3864 19.4977 23.5088 19.4406 23.6026 19.3509C23.6924 19.2611 23.7495 19.1346 23.7495 18.9959C23.7495 18.7185 23.5251 18.4941 23.2517 18.4981H20.5059V15.7523C20.5059 15.4749 20.2815 15.2505 20.0082 15.2546C19.7307 15.2546 19.5063 15.479 19.5104 15.7523V18.4981H16.7646C16.4872 18.4981 16.2628 18.7225 16.2668 18.9959C16.2668 19.2733 16.4912 19.4977 16.7646 19.4937H19.5104V22.2395C19.4982 22.521 19.7226 22.7454 20 22.7454Z" fill="black"/>
</svg>
