<svg width="100" height="100" viewBox="0 0 100 100" fill="none" xmlns="http://www.w3.org/2000/svg">
<g clip-path="url(#clip0_124_89)">
<path d="M20.125 84.01C21.7071 84.01 23.0145 85.1863 23.2215 86.7117L23.25 87.1359V93.3875C23.25 95.1138 21.8509 96.5129 20.125 96.5129C18.5429 96.5129 17.2355 95.3371 17.0285 93.8113L17 93.3875V87.1359C17 85.4096 18.3991 84.01 20.125 84.01ZM53.4583 59.0046C55.0404 59.0046 56.3479 60.1804 56.555 61.7058L56.5833 62.13V83.6321L51.4454 93.9179C51.235 94.3392 51.0563 94.765 50.9071 95.1929C50.6229 94.7921 50.4308 94.3213 50.3617 93.8113L50.3333 93.3875V62.13C50.3333 60.4038 51.7325 59.0046 53.4583 59.0046ZM68.0942 60.5871C69.2758 58.2208 71.1333 56.5829 73.25 55.6733V49.6273L73.2217 49.2031C73.0146 47.6775 71.7071 46.5016 70.125 46.5016C68.3992 46.5016 67 47.901 67 49.6273V62.7775L68.0942 60.5871ZM86.7396 60.5871L89.8917 66.8979L89.8442 37.096L89.8121 36.6721C89.5929 35.1486 88.2892 33.9853 86.7254 34.0001C85.0196 34.0175 83.6504 35.4304 83.6667 37.1566L83.6983 56.9C84.9208 57.8221 85.9725 59.0513 86.7396 60.5871ZM36.7917 71.4917C38.3738 71.4917 39.6812 72.6675 39.8881 74.1934L39.9167 74.6175V93.3663C39.9167 95.0929 38.5175 96.4921 36.7917 96.4921C35.2096 96.4921 33.9021 95.3163 33.6952 93.7904L33.6667 93.3663V74.6175C33.6667 72.8913 35.0658 71.4917 36.7917 71.4917ZM71.8213 62.4488L55.1675 95.7829C53.0896 99.9417 56.1142 104.833 60.7629 104.833H94.0704C98.7192 104.833 101.744 99.9417 99.6658 95.7829L83.0121 62.4488C80.7079 57.8363 74.1258 57.8363 71.8213 62.4488ZM79.5017 73.5579V86.0679C79.5017 87.2196 78.5683 88.1529 77.4167 88.1529C76.2654 88.1529 75.3317 87.2196 75.3317 86.0679V73.5579C75.3317 72.4067 76.2654 71.4729 77.4167 71.4729C78.5683 71.4729 79.5017 72.4067 79.5017 73.5579ZM77.4167 96.4929C76.2654 96.4929 75.3317 95.5596 75.3317 94.4079C75.3317 93.2567 76.2654 92.3229 77.4167 92.3229C78.5683 92.3229 79.5017 93.2567 79.5017 94.4079C79.5017 95.5596 78.5683 96.4929 77.4167 96.4929Z" fill="#7868E6"/>
</g>
<defs>
<clipPath id="clip0_124_89">
<rect width="100" height="100" fill="white"/>
</clipPath>
</defs>
</svg>
