<svg width="45" height="45" viewBox="0 0 45 45" fill="none" xmlns="http://www.w3.org/2000/svg">
<rect width="45" height="45" fill="white"/>
<path d="M44.25 0H0.75C0.3 0 0 0.3 0 0.75V35.25C0 35.7 0.3 36 0.75 36H3.75V44.25C3.75 44.7 4.05 45 4.5 45H40.5C40.95 45 41.25 44.7 41.25 44.25V36H44.25C44.7 36 45 35.7 45 35.25V0.75C45 0.3 44.7 0 44.25 0ZM43.5 1.5V6H1.5V1.5H43.5ZM39.75 18H5.25V13.5H39.75V18ZM5.25 43.5V19.5H39.75V43.5H5.25ZM41.25 34.5V12.75C41.25 12.3 40.95 12 40.5 12H4.5C4.05 12 3.75 12.3 3.75 12.75V34.5H1.5V7.5H43.5V34.5H41.25Z" fill="#7868E6"/>
<path d="M6 3H3V4.5H6V3Z" fill="#7868E6"/>
<path d="M10.5 3H7.5V4.5H10.5V3Z" fill="#7868E6"/>
<path d="M9.75 15H6.75V16.5H9.75V15Z" fill="#7868E6"/>
<path d="M14.25 15H11.25V16.5H14.25V15Z" fill="#7868E6"/>
<path d="M42 3H40.5V4.5H42V3Z" fill="#7868E6"/>
<path d="M39 3H37.5V4.5H39V3Z" fill="#7868E6"/>
<path d="M38.25 15H36.75V16.5H38.25V15Z" fill="#7868E6"/>
<path d="M35.25 15H33.75V16.5H35.25V15Z" fill="#7868E6"/>
<path d="M8.25 35.25H20.25C20.7 35.25 21 34.95 21 34.5V22.5C21 22.05 20.7 21.75 20.25 21.75H8.25C7.8 21.75 7.5 22.05 7.5 22.5V34.5C7.5 34.95 7.8 35.25 8.25 35.25ZM9 29.25H13.5V33.75H9V29.25ZM15 33.75V29.25H19.5V33.75H15ZM19.5 27.75H15V23.25H19.5V27.75ZM13.5 23.25V27.75H9V23.25H13.5Z" fill="#7868E6"/>
<path d="M26.25 21.75H23.25V23.25H26.25V21.75Z" fill="#7868E6"/>
<path d="M24.75 24.75H23.25V26.25H24.75V24.75Z" fill="#7868E6"/>
<path d="M27.75 24.75H26.25V26.25H27.75V24.75Z" fill="#7868E6"/>
<path d="M30.75 24.75H29.25V26.25H30.75V24.75Z" fill="#7868E6"/>
<path d="M33.75 24.75H32.25V26.25H33.75V24.75Z" fill="#7868E6"/>
<path d="M36.75 24.75H35.25V26.25H36.75V24.75Z" fill="#7868E6"/>
<path d="M31.5 21.75H28.5V23.25H31.5V21.75Z" fill="#7868E6"/>
<path d="M36.75 21.75H33.75V23.25H36.75V21.75Z" fill="#7868E6"/>
<path d="M36.75 27.75H23.25V29.25H36.75V27.75Z" fill="#7868E6"/>
<path d="M36.75 30.75H23.25V32.25H36.75V30.75Z" fill="#7868E6"/>
<path d="M36.75 33.75H23.25V35.25H36.75V33.75Z" fill="#7868E6"/>
<path d="M9 38.25H7.5V39.75H9V38.25Z" fill="#7868E6"/>
<path d="M12 38.25H10.5V39.75H12V38.25Z" fill="#7868E6"/>
<path d="M15 38.25H13.5V39.75H15V38.25Z" fill="#7868E6"/>
<path d="M36.75 38.25H16.5V39.75H36.75V38.25Z" fill="#7868E6"/>
</svg>
