<svg width="64" height="64" viewBox="0 0 64 64" fill="none" xmlns="http://www.w3.org/2000/svg">
<path d="M61.7686 23.2579L34.6491 0.949471C33.8795 0.31649 32.9398 0 32 0C31.0603 0 30.1206 0.31649 29.3511 0.949471L21.0938 7.74185V6.441C21.0938 5.28957 20.1604 4.35609 19.0089 4.35609H9.00828C7.85685 4.35609 6.92336 5.28957 6.92336 6.441V19.3985L2.2316 23.2579C0.8721 24.3763 0.361295 26.2281 0.955358 27.8852C1.47117 29.3244 2.72378 30.3475 4.1974 30.5918V59.8302C4.1974 62.1332 6.06438 64 8.36724 64H22.7452C25.0481 64 26.9151 62.1332 26.9151 59.8302V49.2007C26.9151 48.4618 27.2343 48.0213 27.3832 47.9086H36.6169C36.7658 48.0213 37.085 48.4618 37.085 49.2007V59.8302C37.085 62.1332 38.9519 64 41.2549 64H55.6329C57.9359 64 59.8027 62.1332 59.8027 59.8302V30.592C61.2765 30.3478 62.5289 29.3245 63.0447 27.8853C63.6389 26.2281 63.1281 24.3764 61.7686 23.2579ZM11.0932 8.52606H16.924V11.1721L11.0932 15.9685V8.52606ZM55.633 26.4783V59.8303H41.2549V49.2008C41.2549 46.1842 39.2126 43.7389 36.6933 43.7389H27.3069C24.7876 43.7389 22.7454 46.1844 22.7454 49.2008V59.8303H8.36724V26.4783H4.88056L32 4.16983L59.1195 26.4783H55.633Z" fill="black" fill-opacity="0.35"/>
</svg>
