<svg width="41" height="40" viewBox="0 0 41 40" fill="none" xmlns="http://www.w3.org/2000/svg">
<path d="M8.66769 17.327C8.29968 17.327 8.00098 17.6257 8.00098 17.9937V21.9941C8.00098 22.3621 8.29968 22.6608 8.66769 22.6608C9.0357 22.6608 9.3344 22.3621 9.3344 21.9941V17.9937C9.33448 17.6257 9.03578 17.327 8.66769 17.327Z" fill="white"/>
<path d="M8.73963 0.178231L2.43558 2.70054C0.660072 3.35795 0 4.25008 0 5.99222V34.0013C0 35.7435 0.660072 36.6356 2.41894 37.2877L8.75228 39.8213C9.06568 39.94 9.38032 40 9.6884 40C11.0285 40 12.0013 38.8799 12.0013 37.3363V2.65858C12.0013 0.762358 10.4891 -0.480434 8.73963 0.178231ZM10.6678 37.3363C10.6678 38.1317 10.2744 38.6665 9.6884 38.6665C9.54237 38.6665 9.38501 38.6352 9.23499 38.5791L2.89899 36.0435C1.64088 35.5775 1.3335 35.1761 1.3335 34.0013V5.99222C1.3335 4.81741 1.64088 4.41674 2.91501 3.94466L9.22233 1.42173C9.38501 1.36039 9.54167 1.32906 9.6877 1.32906C10.2738 1.32906 10.6678 1.8631 10.6678 2.65858V37.3363Z" fill="white"/>
<path d="M13.9182 3.9921H23.3358C24.4386 3.9921 25.3361 4.88955 25.3361 5.99232V15.9934C25.3361 16.3614 25.6341 16.6601 26.0028 16.6601C26.3715 16.6601 26.6695 16.3614 26.6695 15.9934V5.99232C26.6695 4.15415 25.174 2.6586 23.3358 2.6586H13.9182C13.5502 2.6586 13.2515 2.9573 13.2515 3.32531C13.2515 3.69332 13.5502 3.9921 13.9182 3.9921Z" fill="white"/>
<path d="M26.0027 23.3275C25.634 23.3275 25.336 23.6262 25.336 23.9943V33.9953C25.336 35.0981 24.4386 35.9956 23.3358 35.9956H14.0014C13.6334 35.9956 13.3347 36.2943 13.3347 36.6623C13.3347 37.0303 13.6334 37.329 14.0014 37.329H23.3358C25.174 37.329 26.6695 35.8335 26.6695 33.9953V23.9942C26.6695 23.6263 26.3715 23.3275 26.0027 23.3275Z" fill="white"/>
<path d="M39.9532 19.739C39.9192 19.657 39.8705 19.5837 39.8085 19.5216L33.1417 12.8543C32.881 12.5936 32.4596 12.5936 32.199 12.8543C31.9382 13.115 31.9382 13.5364 32.199 13.797L37.7282 19.3269H15.3352C14.9672 19.3269 14.6685 19.6256 14.6685 19.9936C14.6685 20.3617 14.9672 20.6604 15.3352 20.6604H37.7283L32.199 26.1897C31.9382 26.4504 31.9382 26.8718 32.199 27.1325C32.329 27.2625 32.4997 27.3278 32.6703 27.3278C32.8411 27.3278 33.0117 27.2625 33.1417 27.1325L39.8085 20.4657C39.8705 20.4037 39.9192 20.3304 39.9532 20.2484C40.0205 20.0858 40.0205 19.9018 39.9532 19.739Z" fill="white"/>
</svg>
