<svg width="70" height="70" viewBox="0 0 70 70" fill="none" xmlns="http://www.w3.org/2000/svg">
<path d="M35 0.00158691C15.6721 0.00158691 0 15.6706 0 35C0 54.3295 15.6705 69.9985 35 69.9985C54.331 69.9985 70 54.3295 70 35C70 15.6706 54.331 0.00158691 35 0.00158691ZM35 10.4665C41.3955 10.4665 46.578 15.6506 46.578 22.043C46.578 28.437 41.3955 33.6195 35 33.6195C28.6076 33.6195 23.4251 28.437 23.4251 22.043C23.4251 15.6506 28.6076 10.4665 35 10.4665ZM34.9923 60.848C28.6137 60.848 22.7717 58.525 18.2656 54.6801C17.1679 53.7438 16.5345 52.3709 16.5345 50.9304C16.5345 44.4472 21.7816 39.2586 28.2663 39.2586H41.7368C48.223 39.2586 53.4501 44.4472 53.4501 50.9304C53.4501 52.3724 52.8198 53.7423 51.7205 54.6785C47.216 58.525 41.3724 60.848 34.9923 60.848Z" fill="#D9D9D9"/>
</svg>
