<svg width="60" height="40" viewBox="0 0 60 40" fill="none" xmlns="http://www.w3.org/2000/svg">
<rect width="60" height="40" rx="10" fill="white"/>
<g clip-path="url(#clip0_364_12)">
<path d="M19.9529 9.39882C21.4999 7.85193 23.5567 7 25.7445 7C27.9322 7 29.989 7.85193 31.5362 9.39901C33.0832 10.9462 33.9353 13.003 33.9353 15.1907C33.9353 16.2993 33.7122 17.3906 33.2843 18.3977L41.5538 26.6673L37.2212 30.9999L28.9514 22.7302C27.9444 23.1582 26.8533 23.3813 25.7445 23.3815C23.5568 23.3815 21.5 22.5294 19.9526 20.9822C16.7596 17.7888 16.7597 12.5925 19.9528 9.39901L19.9529 9.39882ZM20.9448 19.9899C22.2271 21.2721 23.9316 21.9783 25.7444 21.9783C26.9636 21.9781 28.1561 21.6533 29.1931 21.039L29.6617 20.7614L31.2183 22.3181L30.8709 22.6654L37.2211 29.0156L39.5695 26.6673L33.2192 20.317L32.872 20.6642L31.3156 19.1078L31.593 18.6392C32.2074 17.602 32.5321 16.4095 32.532 15.1906C32.5321 13.3776 31.826 11.6731 30.5439 10.3911C29.2619 9.1092 27.5574 8.4032 25.7445 8.4032C23.9315 8.4032 22.227 9.1092 20.9451 10.3911C18.299 13.0376 18.2989 17.3437 20.9448 19.9899ZM25.7445 10.3286C24.4458 10.3286 23.2248 10.8342 22.3065 11.7524L23.2986 12.7446C23.369 12.6743 23.4423 12.608 23.5174 12.5446C24.1401 12.0189 24.92 11.7318 25.7445 11.7318C26.6684 11.7318 27.5371 12.0916 28.1905 12.7448C28.7733 13.3277 29.1218 14.0822 29.1902 14.8945C29.1984 14.9925 29.2035 15.0912 29.2035 15.1907H30.6068C30.6068 13.8919 30.1011 12.6708 29.1829 11.7526C28.2642 10.8343 27.0432 10.3286 25.7445 10.3286Z" fill="#7868E6" fill-opacity="0.92"/>
</g>
<defs>
<clipPath id="clip0_364_12">
<rect width="24" height="24" fill="white" transform="matrix(-1 0 0 1 41.556 7)"/>
</clipPath>
</defs>
</svg>
