<svg width="41" height="45" viewBox="0 0 41 45" fill="none" xmlns="http://www.w3.org/2000/svg">
<path d="M40.5 3.83959C40.5 1.71906 38.6867 0 36.45 0H4.05C1.81327 0 0 1.71906 0 3.83959V41.1604C0 43.2809 1.81327 45 4.05 45H36.45C38.6867 45 40.5 43.2809 40.5 41.1604V3.83959ZM5.10478 3.197C6.55484 3.197 7.73048 4.31155 7.73048 5.68628C7.73048 7.06101 6.55484 8.17556 5.10478 8.17556C3.65456 8.17556 2.47909 7.06101 2.47909 5.68628C2.47909 4.31155 3.65456 3.197 5.10478 3.197ZM5.10478 42.7724C3.65456 42.7724 2.47909 41.6579 2.47909 40.2831C2.47909 38.9084 3.65472 37.7939 5.10478 37.7939C6.55484 37.7939 7.73048 38.9084 7.73048 40.2831C7.73048 41.6579 6.55501 42.7724 5.10478 42.7724ZM23.0241 29.7656L23.6031 25.006C23.6462 24.6531 23.5499 24.3313 23.3322 24.1C22.994 23.74 22.4208 23.668 21.9103 23.9411L13.9715 28.188C10.3123 26.0555 7.87126 22.2262 7.87126 17.8555C7.87126 11.1612 13.5954 5.73435 20.6566 5.73435C27.7179 5.73435 33.442 11.1612 33.442 17.8555C33.4418 23.7824 28.9534 28.7126 23.0241 29.7656ZM35.5031 42.7724C34.0529 42.7724 32.8774 41.6579 32.8774 40.2831C32.8774 38.9084 34.053 37.7939 35.5031 37.7939C36.9532 37.7939 38.1288 38.9084 38.1288 40.2831C38.129 41.6579 36.9533 42.7724 35.5031 42.7724ZM35.5031 8.17556C34.0529 8.17556 32.8774 7.06101 32.8774 5.68628C32.8774 4.31155 34.053 3.197 35.5031 3.197C36.9532 3.197 38.1288 4.31155 38.1288 5.68628C38.1288 7.06101 36.9533 8.17556 35.5031 8.17556Z" fill="white"/>
<path d="M20.6566 22.225C23.2022 22.225 25.2658 20.2686 25.2658 17.8552C25.2658 15.4419 23.2022 13.4855 20.6566 13.4855C18.111 13.4855 16.0474 15.4419 16.0474 17.8552C16.0474 20.2686 18.111 22.225 20.6566 22.225Z" fill="white"/>
</svg>
